<mxfile host="app.diagrams.net" agent="Mozilla/5.0 (Windows NT 10.0; Win64; x64) AppleWebKit/537.36 (KHTML, like Gecko) Chrome/136.0.0.0 Safari/537.36" version="27.0.5">
  <diagram name="Page-1" id="aebnK3V7XL3wZ_iLVCu8">
    <mxGraphModel grid="1" page="1" gridSize="10" guides="1" tooltips="1" connect="1" arrows="1" fold="1" pageScale="1" pageWidth="1169" pageHeight="1654" math="0" shadow="0">
      <root>
        <mxCell id="0" />
        <mxCell id="1" parent="0" />
        <mxCell id="yjwQ3AwGPb4EgcVoTuyI-1" value="" style="rounded=0;whiteSpace=wrap;html=1;fillColor=none;dashed=1;strokeColor=#6B6B6B;" vertex="1" parent="1">
          <mxGeometry x="-100" y="121" width="160" height="400" as="geometry" />
        </mxCell>
        <mxCell id="yjwQ3AwGPb4EgcVoTuyI-2" value="&lt;font style=&quot;font-size: 16px;&quot;&gt;Sources&lt;/font&gt;" style="rounded=1;whiteSpace=wrap;html=1;strokeColor=none;" vertex="1" parent="1">
          <mxGeometry x="-80" y="101" width="120" height="40" as="geometry" />
        </mxCell>
        <mxCell id="yjwQ3AwGPb4EgcVoTuyI-7" value="" style="group" connectable="0" vertex="1" parent="1">
          <mxGeometry x="-65.5" y="229" width="80" height="70" as="geometry" />
        </mxCell>
        <mxCell id="yjwQ3AwGPb4EgcVoTuyI-5" value="CRM" style="image;aspect=fixed;html=1;points=[];align=center;fontSize=12;image=img/lib/azure2/general/Folder_Blank.svg;" vertex="1" parent="yjwQ3AwGPb4EgcVoTuyI-7">
          <mxGeometry y="6" width="69" height="56.00000000000001" as="geometry" />
        </mxCell>
        <mxCell id="yjwQ3AwGPb4EgcVoTuyI-11" value="" style="group" connectable="0" vertex="1" parent="1">
          <mxGeometry x="-65.5" y="387" width="80" height="70" as="geometry" />
        </mxCell>
        <mxCell id="yjwQ3AwGPb4EgcVoTuyI-8" value="ERP" style="image;aspect=fixed;html=1;points=[];align=center;fontSize=12;image=img/lib/azure2/general/Folder_Blank.svg;" vertex="1" parent="yjwQ3AwGPb4EgcVoTuyI-11">
          <mxGeometry width="69" height="56.00000000000001" as="geometry" />
        </mxCell>
        <mxCell id="yjwQ3AwGPb4EgcVoTuyI-15" value="" style="rounded=1;whiteSpace=wrap;html=1;fillColor=#ffe6cc;strokeColor=#d79b00;fillStyle=hatch;dashed=1;" vertex="1" parent="1">
          <mxGeometry x="120" y="171" width="180" height="350" as="geometry" />
        </mxCell>
        <mxCell id="yjwQ3AwGPb4EgcVoTuyI-17" value="&lt;font style=&quot;font-size: 16px;&quot;&gt;&lt;b&gt;Bronze Layer&lt;/b&gt;&lt;/font&gt;" style="rounded=1;whiteSpace=wrap;html=1;fillColor=#ffe6cc;strokeColor=#d79b00;" vertex="1" parent="1">
          <mxGeometry x="120" y="121" width="180" height="40" as="geometry" />
        </mxCell>
        <mxCell id="yjwQ3AwGPb4EgcVoTuyI-42" style="edgeStyle=orthogonalEdgeStyle;rounded=0;orthogonalLoop=1;jettySize=auto;html=1;entryX=0;entryY=0.5;entryDx=0;entryDy=0;" edge="1" parent="1" source="yjwQ3AwGPb4EgcVoTuyI-18" target="yjwQ3AwGPb4EgcVoTuyI-36">
          <mxGeometry relative="1" as="geometry" />
        </mxCell>
        <mxCell id="yjwQ3AwGPb4EgcVoTuyI-18" value="crm_sales_details" style="rounded=1;whiteSpace=wrap;html=1;fillColor=#ffe6cc;strokeColor=#d79b00;" vertex="1" parent="1">
          <mxGeometry x="140" y="201" width="140" height="34" as="geometry" />
        </mxCell>
        <mxCell id="yjwQ3AwGPb4EgcVoTuyI-43" style="edgeStyle=orthogonalEdgeStyle;rounded=0;orthogonalLoop=1;jettySize=auto;html=1;entryX=0;entryY=0.5;entryDx=0;entryDy=0;" edge="1" parent="1" source="yjwQ3AwGPb4EgcVoTuyI-19" target="yjwQ3AwGPb4EgcVoTuyI-37">
          <mxGeometry relative="1" as="geometry" />
        </mxCell>
        <mxCell id="yjwQ3AwGPb4EgcVoTuyI-19" value="crm_cust_info" style="rounded=1;whiteSpace=wrap;html=1;fillColor=#ffe6cc;strokeColor=#d79b00;" vertex="1" parent="1">
          <mxGeometry x="140" y="246" width="140" height="34" as="geometry" />
        </mxCell>
        <mxCell id="yjwQ3AwGPb4EgcVoTuyI-44" style="edgeStyle=orthogonalEdgeStyle;rounded=0;orthogonalLoop=1;jettySize=auto;html=1;entryX=0;entryY=0.5;entryDx=0;entryDy=0;" edge="1" parent="1" source="yjwQ3AwGPb4EgcVoTuyI-20" target="yjwQ3AwGPb4EgcVoTuyI-38">
          <mxGeometry relative="1" as="geometry" />
        </mxCell>
        <mxCell id="yjwQ3AwGPb4EgcVoTuyI-20" value="&lt;span style=&quot;color: rgb(51, 51, 51);&quot;&gt;crm_prd_info&lt;/span&gt;" style="rounded=1;whiteSpace=wrap;html=1;fillColor=#ffe6cc;strokeColor=#d79b00;" vertex="1" parent="1">
          <mxGeometry x="140" y="291" width="140" height="34" as="geometry" />
        </mxCell>
        <mxCell id="yjwQ3AwGPb4EgcVoTuyI-24" style="edgeStyle=orthogonalEdgeStyle;rounded=0;orthogonalLoop=1;jettySize=auto;html=1;entryX=0;entryY=0.5;entryDx=0;entryDy=0;" edge="1" parent="1" source="yjwQ3AwGPb4EgcVoTuyI-5" target="yjwQ3AwGPb4EgcVoTuyI-18">
          <mxGeometry relative="1" as="geometry" />
        </mxCell>
        <mxCell id="yjwQ3AwGPb4EgcVoTuyI-25" style="edgeStyle=orthogonalEdgeStyle;rounded=0;orthogonalLoop=1;jettySize=auto;html=1;entryX=0;entryY=0.5;entryDx=0;entryDy=0;" edge="1" parent="1" source="yjwQ3AwGPb4EgcVoTuyI-5" target="yjwQ3AwGPb4EgcVoTuyI-20">
          <mxGeometry relative="1" as="geometry" />
        </mxCell>
        <mxCell id="yjwQ3AwGPb4EgcVoTuyI-26" style="edgeStyle=orthogonalEdgeStyle;rounded=0;orthogonalLoop=1;jettySize=auto;html=1;entryX=0;entryY=0.5;entryDx=0;entryDy=0;" edge="1" parent="1" source="yjwQ3AwGPb4EgcVoTuyI-5" target="yjwQ3AwGPb4EgcVoTuyI-19">
          <mxGeometry relative="1" as="geometry" />
        </mxCell>
        <mxCell id="yjwQ3AwGPb4EgcVoTuyI-45" style="edgeStyle=orthogonalEdgeStyle;rounded=0;orthogonalLoop=1;jettySize=auto;html=1;entryX=0;entryY=0.5;entryDx=0;entryDy=0;" edge="1" parent="1" source="yjwQ3AwGPb4EgcVoTuyI-27" target="yjwQ3AwGPb4EgcVoTuyI-39">
          <mxGeometry relative="1" as="geometry" />
        </mxCell>
        <mxCell id="yjwQ3AwGPb4EgcVoTuyI-27" value="erp_cust_az12" style="rounded=1;whiteSpace=wrap;html=1;fillColor=#ffe6cc;strokeColor=#d79b00;" vertex="1" parent="1">
          <mxGeometry x="140" y="353" width="140" height="34" as="geometry" />
        </mxCell>
        <mxCell id="yjwQ3AwGPb4EgcVoTuyI-46" style="edgeStyle=orthogonalEdgeStyle;rounded=0;orthogonalLoop=1;jettySize=auto;html=1;entryX=0;entryY=0.5;entryDx=0;entryDy=0;" edge="1" parent="1" source="yjwQ3AwGPb4EgcVoTuyI-28" target="yjwQ3AwGPb4EgcVoTuyI-40">
          <mxGeometry relative="1" as="geometry" />
        </mxCell>
        <mxCell id="yjwQ3AwGPb4EgcVoTuyI-28" value="erp_loc_a101" style="rounded=1;whiteSpace=wrap;html=1;fillColor=#ffe6cc;strokeColor=#d79b00;" vertex="1" parent="1">
          <mxGeometry x="140" y="398" width="140" height="34" as="geometry" />
        </mxCell>
        <mxCell id="yjwQ3AwGPb4EgcVoTuyI-47" style="edgeStyle=orthogonalEdgeStyle;rounded=0;orthogonalLoop=1;jettySize=auto;html=1;entryX=0;entryY=0.5;entryDx=0;entryDy=0;" edge="1" parent="1" source="yjwQ3AwGPb4EgcVoTuyI-29" target="yjwQ3AwGPb4EgcVoTuyI-41">
          <mxGeometry relative="1" as="geometry" />
        </mxCell>
        <mxCell id="yjwQ3AwGPb4EgcVoTuyI-29" value="erp_px_cat_g1v2" style="rounded=1;whiteSpace=wrap;html=1;fillColor=#ffe6cc;strokeColor=#d79b00;" vertex="1" parent="1">
          <mxGeometry x="140" y="443" width="140" height="34" as="geometry" />
        </mxCell>
        <mxCell id="yjwQ3AwGPb4EgcVoTuyI-30" style="edgeStyle=orthogonalEdgeStyle;rounded=0;orthogonalLoop=1;jettySize=auto;html=1;entryX=0;entryY=0.5;entryDx=0;entryDy=0;" edge="1" parent="1" source="yjwQ3AwGPb4EgcVoTuyI-8" target="yjwQ3AwGPb4EgcVoTuyI-27">
          <mxGeometry relative="1" as="geometry" />
        </mxCell>
        <mxCell id="yjwQ3AwGPb4EgcVoTuyI-31" style="edgeStyle=orthogonalEdgeStyle;rounded=0;orthogonalLoop=1;jettySize=auto;html=1;entryX=0;entryY=0.5;entryDx=0;entryDy=0;" edge="1" parent="1" source="yjwQ3AwGPb4EgcVoTuyI-8" target="yjwQ3AwGPb4EgcVoTuyI-28">
          <mxGeometry relative="1" as="geometry" />
        </mxCell>
        <mxCell id="yjwQ3AwGPb4EgcVoTuyI-32" style="edgeStyle=orthogonalEdgeStyle;rounded=0;orthogonalLoop=1;jettySize=auto;html=1;entryX=0;entryY=0.5;entryDx=0;entryDy=0;" edge="1" parent="1" source="yjwQ3AwGPb4EgcVoTuyI-8" target="yjwQ3AwGPb4EgcVoTuyI-29">
          <mxGeometry relative="1" as="geometry" />
        </mxCell>
        <mxCell id="yjwQ3AwGPb4EgcVoTuyI-33" value="&lt;h1 style=&quot;margin-top: 0px;&quot;&gt;Data Flow Diagram&lt;/h1&gt;" style="text;html=1;whiteSpace=wrap;overflow=hidden;rounded=0;" vertex="1" parent="1">
          <mxGeometry x="-120" y="10" width="320" height="30" as="geometry" />
        </mxCell>
        <mxCell id="yjwQ3AwGPb4EgcVoTuyI-34" value="" style="rounded=1;whiteSpace=wrap;html=1;fillColor=#f5f5f5;strokeColor=#666666;fillStyle=hatch;dashed=1;fontColor=#333333;" vertex="1" parent="1">
          <mxGeometry x="390" y="171" width="180" height="350" as="geometry" />
        </mxCell>
        <mxCell id="yjwQ3AwGPb4EgcVoTuyI-35" value="&lt;font style=&quot;font-size: 16px;&quot;&gt;&lt;b&gt;Silver Layer&lt;/b&gt;&lt;/font&gt;" style="rounded=1;whiteSpace=wrap;html=1;fillColor=#f5f5f5;strokeColor=#666666;fontColor=#333333;" vertex="1" parent="1">
          <mxGeometry x="390" y="121" width="180" height="40" as="geometry" />
        </mxCell>
        <mxCell id="yjwQ3AwGPb4EgcVoTuyI-36" value="&lt;span style=&quot;color: rgb(0, 0, 0);&quot;&gt;crm_sales_details&lt;/span&gt;" style="rounded=1;whiteSpace=wrap;html=1;fillColor=#f5f5f5;strokeColor=#666666;fontColor=#333333;" vertex="1" parent="1">
          <mxGeometry x="410" y="201" width="140" height="34" as="geometry" />
        </mxCell>
        <mxCell id="yjwQ3AwGPb4EgcVoTuyI-37" value="&lt;span style=&quot;color: rgb(0, 0, 0);&quot;&gt;crm_cust_info&lt;/span&gt;" style="rounded=1;whiteSpace=wrap;html=1;fillColor=#f5f5f5;strokeColor=#666666;fontColor=#333333;" vertex="1" parent="1">
          <mxGeometry x="410" y="246" width="140" height="34" as="geometry" />
        </mxCell>
        <mxCell id="yjwQ3AwGPb4EgcVoTuyI-38" value="crm_prd_info" style="rounded=1;whiteSpace=wrap;html=1;fillColor=#f5f5f5;strokeColor=#666666;fontColor=#333333;" vertex="1" parent="1">
          <mxGeometry x="410" y="291" width="140" height="34" as="geometry" />
        </mxCell>
        <mxCell id="yjwQ3AwGPb4EgcVoTuyI-39" value="erp_cust_az12" style="rounded=1;whiteSpace=wrap;html=1;fillColor=#f5f5f5;strokeColor=#666666;fontColor=#333333;" vertex="1" parent="1">
          <mxGeometry x="410" y="353" width="140" height="34" as="geometry" />
        </mxCell>
        <mxCell id="yjwQ3AwGPb4EgcVoTuyI-40" value="erp_loc_a101" style="rounded=1;whiteSpace=wrap;html=1;fillColor=#f5f5f5;strokeColor=#666666;fontColor=#333333;" vertex="1" parent="1">
          <mxGeometry x="410" y="398" width="140" height="34" as="geometry" />
        </mxCell>
        <mxCell id="yjwQ3AwGPb4EgcVoTuyI-41" value="erp_px_cat_g1v2" style="rounded=1;whiteSpace=wrap;html=1;fillColor=#f5f5f5;strokeColor=#666666;fontColor=#333333;" vertex="1" parent="1">
          <mxGeometry x="410" y="443" width="140" height="34" as="geometry" />
        </mxCell>
        <mxCell id="yjwQ3AwGPb4EgcVoTuyI-48" value="" style="rounded=1;whiteSpace=wrap;html=1;fillColor=#fff2cc;strokeColor=#d6b656;fillStyle=hatch;dashed=1;" vertex="1" parent="1">
          <mxGeometry x="660" y="171" width="180" height="350" as="geometry" />
        </mxCell>
        <mxCell id="yjwQ3AwGPb4EgcVoTuyI-49" value="&lt;font style=&quot;font-size: 16px;&quot;&gt;&lt;b&gt;Gold Layer&lt;/b&gt;&lt;/font&gt;" style="rounded=1;whiteSpace=wrap;html=1;fillColor=#fff2cc;strokeColor=#d6b656;" vertex="1" parent="1">
          <mxGeometry x="660" y="121" width="180" height="40" as="geometry" />
        </mxCell>
        <mxCell id="yjwQ3AwGPb4EgcVoTuyI-50" value="fact_sales" style="rounded=1;whiteSpace=wrap;html=1;fillColor=#fff2cc;strokeColor=#d6b656;" vertex="1" parent="1">
          <mxGeometry x="680" y="212" width="140" height="34" as="geometry" />
        </mxCell>
        <mxCell id="yjwQ3AwGPb4EgcVoTuyI-51" value="dim_products" style="rounded=1;whiteSpace=wrap;html=1;fillColor=#fff2cc;strokeColor=#d6b656;" vertex="1" parent="1">
          <mxGeometry x="680" y="398" width="140" height="34" as="geometry" />
        </mxCell>
        <mxCell id="yjwQ3AwGPb4EgcVoTuyI-52" value="dim_customers" style="rounded=1;whiteSpace=wrap;html=1;fillColor=#fff2cc;strokeColor=#d6b656;" vertex="1" parent="1">
          <mxGeometry x="680" y="320" width="140" height="34" as="geometry" />
        </mxCell>
        <mxCell id="yjwQ3AwGPb4EgcVoTuyI-56" value="" style="endArrow=classic;html=1;rounded=0;exitX=1;exitY=0.5;exitDx=0;exitDy=0;entryX=0;entryY=0.5;entryDx=0;entryDy=0;" edge="1" parent="1" source="yjwQ3AwGPb4EgcVoTuyI-36" target="yjwQ3AwGPb4EgcVoTuyI-50">
          <mxGeometry width="50" height="50" relative="1" as="geometry">
            <mxPoint x="570" y="350" as="sourcePoint" />
            <mxPoint x="620" y="300" as="targetPoint" />
          </mxGeometry>
        </mxCell>
        <mxCell id="yjwQ3AwGPb4EgcVoTuyI-57" value="" style="endArrow=classic;html=1;rounded=0;exitX=1;exitY=0.5;exitDx=0;exitDy=0;entryX=0;entryY=0.5;entryDx=0;entryDy=0;jumpStyle=gap;" edge="1" parent="1" source="yjwQ3AwGPb4EgcVoTuyI-37" target="yjwQ3AwGPb4EgcVoTuyI-52">
          <mxGeometry width="50" height="50" relative="1" as="geometry">
            <mxPoint x="560" y="228" as="sourcePoint" />
            <mxPoint x="690" y="239" as="targetPoint" />
          </mxGeometry>
        </mxCell>
        <mxCell id="yjwQ3AwGPb4EgcVoTuyI-58" value="" style="endArrow=classic;html=1;rounded=0;exitX=1;exitY=0.5;exitDx=0;exitDy=0;entryX=0;entryY=0.5;entryDx=0;entryDy=0;jumpStyle=gap;" edge="1" parent="1" source="yjwQ3AwGPb4EgcVoTuyI-39" target="yjwQ3AwGPb4EgcVoTuyI-52">
          <mxGeometry width="50" height="50" relative="1" as="geometry">
            <mxPoint x="560" y="273" as="sourcePoint" />
            <mxPoint x="670" y="350" as="targetPoint" />
          </mxGeometry>
        </mxCell>
        <mxCell id="yjwQ3AwGPb4EgcVoTuyI-59" value="" style="endArrow=classic;html=1;rounded=0;exitX=1;exitY=0.5;exitDx=0;exitDy=0;entryX=0;entryY=0.5;entryDx=0;entryDy=0;jumpStyle=gap;" edge="1" parent="1" source="yjwQ3AwGPb4EgcVoTuyI-40" target="yjwQ3AwGPb4EgcVoTuyI-52">
          <mxGeometry width="50" height="50" relative="1" as="geometry">
            <mxPoint x="560" y="380" as="sourcePoint" />
            <mxPoint x="680" y="340" as="targetPoint" />
          </mxGeometry>
        </mxCell>
        <mxCell id="yjwQ3AwGPb4EgcVoTuyI-60" value="" style="endArrow=classic;html=1;rounded=0;exitX=1;exitY=0.5;exitDx=0;exitDy=0;entryX=0;entryY=0.5;entryDx=0;entryDy=0;jumpStyle=gap;" edge="1" parent="1" source="yjwQ3AwGPb4EgcVoTuyI-38" target="yjwQ3AwGPb4EgcVoTuyI-51">
          <mxGeometry width="50" height="50" relative="1" as="geometry">
            <mxPoint x="560" y="425" as="sourcePoint" />
            <mxPoint x="690" y="347" as="targetPoint" />
          </mxGeometry>
        </mxCell>
        <mxCell id="yjwQ3AwGPb4EgcVoTuyI-61" value="" style="endArrow=classic;html=1;rounded=0;exitX=1;exitY=0.5;exitDx=0;exitDy=0;entryX=0;entryY=0.5;entryDx=0;entryDy=0;jumpStyle=gap;" edge="1" parent="1" source="yjwQ3AwGPb4EgcVoTuyI-41" target="yjwQ3AwGPb4EgcVoTuyI-51">
          <mxGeometry width="50" height="50" relative="1" as="geometry">
            <mxPoint x="560" y="318" as="sourcePoint" />
            <mxPoint x="680" y="410" as="targetPoint" />
          </mxGeometry>
        </mxCell>
      </root>
    </mxGraphModel>
  </diagram>
</mxfile>
